<svg xmlns="http://www.w3.org/2000/svg" version="1.1" xmlns:xlink="http://www.w3.org/1999/xlink" width="1000" height="1000"><style>
    #light-icon {
      display: inline;
    }
    #dark-icon {
      display: none;
    }

    @media (prefers-color-scheme: dark) {
      #light-icon {
        display: none;
      }
      #dark-icon {
        display: inline;
      }
    }
  </style><g id="light-icon"><svg xmlns="http://www.w3.org/2000/svg" version="1.1" xmlns:xlink="http://www.w3.org/1999/xlink" width="1000" height="1000"><g><g transform="matrix(7.194244604316546,0,0,7.194244604316546,0,359.71223021582733)"><svg xmlns="http://www.w3.org/2000/svg" version="1.1" xmlns:xlink="http://www.w3.org/1999/xlink" width="139" height="39"><svg width="139" height="39" viewBox="0 0 139 39" fill="none" xmlns="http://www.w3.org/2000/svg">
<path d="M8.78297 39H0L21.5755 0.573517H30.3585L8.78297 39Z" fill="#002FAF"></path>
<path d="M130.217 39H139L117.424 0.573517H108.641L130.217 39Z" fill="#002FAF"></path>
<path d="M37.6143 0.573242L53.8223 29.4414L59.1895 39H50.4062L28.8311 0.573242H37.6143ZM84.9863 29.25L101.195 0.382812H109.979L88.4023 38.8086H79.7246L79.6191 39L69.1182 18.1621L59.1895 39L53.8438 29.4414L69.1182 0L84.9863 29.25Z" fill="#0C62FB"></path>
<path d="M31.1223 22.5588H19.2844L15.4657 30.0147H35.1319L31.1223 22.5588Z" fill="#002FAF"></path>
<path d="M119.334 22.75H107.496L103.677 30.2059H123.343L119.334 22.75Z" fill="#002FAF"></path>
</svg></svg></g></g></svg></g><g id="dark-icon"><svg xmlns="http://www.w3.org/2000/svg" version="1.1" xmlns:xlink="http://www.w3.org/1999/xlink" width="1000" height="1000"><g><g transform="matrix(7.194244604316546,0,0,7.194244604316546,0,359.71223021582733)"><svg xmlns="http://www.w3.org/2000/svg" version="1.1" xmlns:xlink="http://www.w3.org/1999/xlink" width="139" height="39"><svg width="139" height="39" viewBox="0 0 139 39" fill="none" xmlns="http://www.w3.org/2000/svg">
    <path d="M8.78297 39H0L21.5755 0.573517H30.3585L8.78297 39Z" fill="white" fill-opacity="0.65"></path>
    <path d="M130.217 39H139L117.424 0.573517H108.641L130.217 39Z" fill="white" fill-opacity="0.65"></path>
    <path d="M37.6143 0.573242L53.8223 29.4414L59.1895 39H50.4062L28.8311 0.573242H37.6143ZM84.9863 29.25L101.195 0.382812H109.979L88.4023 38.8086H79.7246L79.6191 39L69.1182 18.1621L59.1895 39L53.8438 29.4414L69.1182 0L84.9863 29.25Z" fill="white"></path>
    <path d="M31.1223 22.5588H19.2844L15.4657 30.0147H35.1319L31.1223 22.5588Z" fill="white" fill-opacity="0.65"></path>
    <path d="M119.334 22.75H107.496L103.677 30.2059H123.343L119.334 22.75Z" fill="white" fill-opacity="0.65"></path>
</svg></svg></g></g></svg></g></svg>
